<svg width="159" height="36" viewBox="0 0 159 36" fill="none" xmlns="http://www.w3.org/2000/svg">
<path d="M158.613 35.5H0.921875V0.046875H158.613V35.5ZM76.0771 33.5H156.625V2.04688H76.0771V33.5ZM44.9785 11.7158C41.7984 11.7158 39.6618 12.6921 38.4834 14.1631C37.7026 15.2252 37.3012 16.5216 37.3447 17.8418C37.2937 19.1904 37.6822 20.5192 38.4502 21.626C39.6147 23.1418 41.6907 23.8926 44.1836 23.8926C45.8421 24.0092 47.4896 23.5425 48.8428 22.5713L48.9473 23.7129H52.1572V16.7305H44.3633V19.2637H48.5283C48.4688 19.5562 48.3407 19.8303 48.1553 20.0635C47.2918 20.771 46.1893 21.1162 45.0791 21.0254C44.5204 21.0854 43.9549 21.0234 43.4219 20.8447C42.889 20.666 42.4004 20.3743 41.9893 19.9893C41.5686 19.368 41.3683 18.6217 41.4219 17.8721C41.3535 17.0863 41.5715 16.302 42.0342 15.665C42.4417 15.3019 42.9207 15.0293 43.4404 14.8662C43.9603 14.7031 44.5091 14.6528 45.0498 14.7188C45.9715 14.642 46.8923 14.8796 47.6631 15.3936C47.9062 15.5873 48.0881 15.8484 48.1855 16.1445H52.0557C52.0267 15.6573 51.9094 15.1798 51.7109 14.7344C50.7862 12.8424 48.6367 11.7159 44.9785 11.7158ZM28.5645 11.6562C23.3995 11.6562 20.6807 14.1183 20.6807 17.7373C20.6808 21.8211 23.5328 23.8926 28.5645 23.8926C34.1041 23.8926 36.4335 21.4901 36.4336 17.7373C36.4336 13.9233 33.8099 11.6563 28.5645 11.6562ZM61.1748 11.6562C56.0101 11.6564 53.292 14.1184 53.292 17.7373C53.2921 21.821 56.1434 23.8925 61.1748 23.8926C66.7135 23.8926 69.0438 21.4901 69.0439 17.7373C69.0439 13.9233 66.4164 11.6562 61.1748 11.6562ZM109.229 11.7012C113.978 11.7013 115.799 13.5783 115.799 15.5303H112.816C112.816 14.5393 111.696 13.9678 109.053 13.9678C106.335 13.9678 105.754 14.3431 105.754 15.0791C105.754 15.8451 106.351 16.0847 109.234 16.4297C109.892 16.5207 111.354 16.6865 111.757 16.7305C114.804 17.0455 116.177 18.156 116.177 20.123C116.172 22.466 114.082 23.8477 109.647 23.8477C104.332 23.8476 102.705 21.8481 102.705 19.8691H105.721C105.721 20.8451 107.05 21.5811 109.782 21.5811C112.499 21.581 113.216 21.1002 113.216 20.3193C113.216 19.4484 112.679 19.1776 110.155 18.8926C109.658 18.8476 108.304 18.6834 107.796 18.6084C104.217 18.2024 102.838 17.1362 102.838 15.2295C102.838 13.2175 104.855 11.7012 109.229 11.7012ZM121.086 19.0732C121.086 20.5601 122.296 21.5498 124.789 21.5498C127.043 21.5497 128.388 20.62 128.388 19.0732V11.8809H131.21V19.2998C131.21 22.2567 128.85 23.8329 124.67 23.833C120.774 23.833 118.234 22.2861 118.234 19.0332V11.8809H121.086V19.0732ZM9.30371 23.7129H20.4854V20.5742H13.3486V11.9258H9.30371V23.7129ZM85.7754 23.668H82.8916V11.8809H85.7754V23.668ZM96.8232 11.8809C97.4764 11.8114 98.1374 11.8817 98.7617 12.0859C99.3872 12.2903 99.9619 12.6247 100.45 13.0674C101.095 13.9116 101.409 14.9642 101.332 16.0254C101.398 16.9904 101.134 17.9494 100.584 18.7432C99.8531 19.7041 98.5951 20.1432 96.8223 20.1543C96.4502 20.1543 91.54 20.1388 91.4912 20.1387V23.668H88.6689V11.8809H96.8232ZM141.658 20.8604L145.778 11.8809H149.358V23.668H146.663V15.7998L143.004 23.668H140.228L136.674 15.7998V23.668H133.989V11.8809H137.627L141.658 20.8604ZM28.5498 14.7188C31.67 14.7189 32.3721 16.0823 32.3721 17.7822C32.372 19.5841 31.5227 20.875 28.5625 20.875C25.6211 20.875 24.7706 19.6591 24.7705 17.7822C24.7705 15.9352 25.6978 14.7188 28.5498 14.7188ZM61.1602 14.7188C64.2806 14.7188 64.9824 16.0822 64.9824 17.7822C64.9824 19.5841 64.1321 20.875 61.1729 20.875C58.2328 20.8749 57.3819 19.659 57.3818 17.7822C57.3818 15.9353 58.3083 14.7188 61.1602 14.7188ZM91.4756 17.7881H96.208C97.3723 17.7881 97.9861 17.5479 98.2695 17.082C98.4386 16.7537 98.5103 16.3836 98.4785 16.0156C98.5033 15.632 98.4315 15.2485 98.2695 14.9004C97.9712 14.4504 97.3281 14.2002 96.2393 14.2002H91.4756V17.7881Z" fill="#080829"/>
</svg>
