<svg width="118" height="24" viewBox="0 0 118 24" fill="none" xmlns="http://www.w3.org/2000/svg">
<path d="M2.12402 18.6602C3.41745 18.6875 4.67423 19.1119 5.72363 19.8799C6.34575 20.3411 7.09826 20.5898 7.87109 20.5898C8.64415 20.5898 9.39733 20.3412 10.0195 19.8799C11.1532 19.0864 12.5016 18.6611 13.8828 18.6611C15.2641 18.6612 16.6124 19.0863 17.7461 19.8799C18.3682 20.3411 19.1207 20.5898 19.8936 20.5898C20.6666 20.5898 21.4198 20.3412 22.042 19.8799C23.1476 19.0713 24.4837 18.6436 25.8506 18.6602H27.4512V21.8701H25.8506C25.0744 21.8494 24.3147 22.1004 23.7021 22.5801C22.5685 23.3736 21.2201 23.7988 19.8389 23.7988C18.4576 23.7988 17.1093 23.3736 15.9756 22.5801C15.3639 22.099 14.6044 21.8478 13.8281 21.8701C13.0523 21.8511 12.293 22.1018 11.6797 22.5801C10.5481 23.3741 9.20115 23.7998 7.82129 23.7998C6.44146 23.7997 5.09444 23.3741 3.96289 22.5801C3.35039 22.1005 2.59146 21.8494 1.81543 21.8701H0.213867V18.6602H2.12402ZM53.5049 11.6396C54.2686 11.6194 55.0162 11.8633 55.623 12.3301V12.1699C55.6185 12.1318 55.6226 12.0931 55.6348 12.0566C55.6469 12.0202 55.6669 11.9867 55.6934 11.959C55.72 11.9312 55.7531 11.9091 55.7891 11.8955C55.8248 11.882 55.8632 11.8767 55.9014 11.8799L57.5518 11.8701C57.7407 11.8701 57.8301 11.9702 57.8301 12.1602V19.3301C57.8474 19.8139 57.7583 20.2958 57.5674 20.7402C57.3765 21.1848 57.0887 21.5814 56.7266 21.9004C55.9225 22.5897 54.8885 22.9472 53.833 22.9004C52.8795 22.9341 51.9383 22.6723 51.1377 22.1504C50.7959 21.9247 50.5044 21.6301 50.2803 21.2861C50.0563 20.9422 49.9052 20.5556 49.8359 20.1504C49.8359 19.9505 49.8355 19.8604 50.1035 19.8604H51.7744C51.8453 19.8628 51.9144 19.885 51.9727 19.9258C52.0308 19.9666 52.0757 20.0238 52.1025 20.0898C52.2108 20.3934 52.4268 20.6463 52.709 20.7998C53.053 20.9783 53.4362 21.0683 53.8232 21.0605C54.0567 21.0734 54.2905 21.0389 54.5107 20.96C54.7308 20.8811 54.9328 20.7581 55.1055 20.5996C55.2631 20.4339 55.3865 20.2381 55.4668 20.0234C55.547 19.8086 55.5833 19.5789 55.5732 19.3496V18.7197C54.9751 19.1621 54.2471 19.3913 53.5049 19.3701C52.9855 19.3891 52.4676 19.3024 51.9824 19.1152C51.4972 18.9279 51.054 18.6438 50.6807 18.2803C49.9637 17.5344 49.5635 16.5374 49.5635 15.5C49.5635 14.4627 49.9637 13.4656 50.6807 12.7197C51.0558 12.3594 51.4994 12.078 51.9844 11.8926C52.4693 11.7072 52.9864 11.6211 53.5049 11.6396ZM74.6064 11.6299C74.9713 11.5974 75.3371 11.6754 75.6582 11.8535C75.9784 12.0317 76.2392 12.3019 76.4062 12.6299C76.7264 12.3041 77.1096 12.0479 77.5322 11.876C77.9548 11.7041 78.4069 11.6199 78.8623 11.6299C79.3843 11.6092 79.9044 11.6944 80.3936 11.8799C80.8817 12.0653 81.3282 12.3477 81.7061 12.71C82.4091 13.4688 82.8007 14.4676 82.8008 15.5049C82.8008 16.5422 82.4091 17.5409 81.7061 18.2998C81.3302 18.6653 80.8837 18.9504 80.3955 19.1377C79.9063 19.325 79.3853 19.4108 78.8623 19.3896C78.1176 19.4063 77.3877 19.1785 76.7842 18.7402V22.3496C76.7842 22.5395 76.6848 22.6298 76.4961 22.6299H74.8252C74.7874 22.6371 74.7477 22.6345 74.7109 22.623C74.6741 22.6114 74.6401 22.5911 74.6123 22.5635C74.5856 22.5359 74.5646 22.502 74.5537 22.4648C74.5418 22.4276 74.5399 22.3878 74.5469 22.3496V14.1504C74.5588 14.0702 74.5512 13.9881 74.5254 13.9111C74.5005 13.8343 74.458 13.7643 74.4004 13.707C74.3437 13.6497 74.2738 13.6066 74.1973 13.5811C74.1208 13.5556 74.0394 13.5478 73.96 13.5596H73.6318C73.4132 13.5596 73.3038 13.4801 73.3037 13.3203V12.1396C73.2988 12.0668 73.3187 11.9944 73.3604 11.9346C73.4021 11.8745 73.4626 11.83 73.5322 11.8096C73.8763 11.6839 74.2405 11.6232 74.6064 11.6299ZM94.2861 11.8701C94.4749 11.8702 94.5645 11.9703 94.5645 12.1602V15.7695C94.5466 16.2193 94.6988 16.6596 94.9922 17C95.1383 17.1557 95.316 17.2783 95.5127 17.3594C95.7096 17.4404 95.9229 17.4781 96.1357 17.4697C96.3533 17.4793 96.5707 17.4455 96.7754 17.3701C96.9802 17.2946 97.169 17.1793 97.3291 17.0303C97.4802 16.8733 97.5982 16.686 97.6748 16.4814C97.7523 16.2768 97.7863 16.0584 97.7764 15.8398V12.1602C97.7764 11.9702 97.8657 11.8701 98.0547 11.8701H99.7451C99.9341 11.8701 100.023 11.9702 100.023 12.1602V16.8701C100.023 17.2599 100.193 17.4501 100.521 17.4502C100.675 17.4562 100.829 17.4396 100.979 17.4004C101.016 17.3898 101.055 17.3876 101.094 17.3945C101.132 17.4015 101.168 17.4174 101.2 17.4404C101.232 17.4634 101.258 17.493 101.275 17.5273C101.294 17.5618 101.305 17.6006 101.307 17.6396L101.426 18.8896C101.432 18.9251 101.43 18.9622 101.422 18.9971C101.413 19.0319 101.398 19.0649 101.376 19.0938C101.355 19.1225 101.328 19.1468 101.298 19.165C101.267 19.1833 101.233 19.1953 101.197 19.2002C100.834 19.3194 100.455 19.3828 100.073 19.3896C99.6955 19.429 99.3138 19.3702 98.9658 19.2178C98.6168 19.0654 98.3137 18.8244 98.085 18.5195C97.3829 19.1268 96.4736 19.4385 95.5488 19.3896C95.1193 19.4095 94.6907 19.3393 94.29 19.1826C93.8894 19.0259 93.5249 18.7869 93.2217 18.4805C92.9205 18.1595 92.6873 17.7801 92.5352 17.3662C92.383 16.9522 92.3151 16.5111 92.3369 16.0703V12.1602C92.3369 11.9702 92.4263 11.8701 92.6152 11.8701H94.2861ZM44.2471 11.6172C45.335 11.6173 46.3895 11.9966 47.2305 12.6904C47.9511 13.4463 48.3535 14.4529 48.3535 15.5C48.3535 16.5471 47.951 17.5537 47.2305 18.3096V18.3203C46.3912 19.0178 45.336 19.3993 44.2471 19.3994C43.1583 19.3994 42.1031 19.0177 41.2637 18.3203C40.5259 17.5713 40.1123 16.5592 40.1123 15.5049C40.1123 14.4507 40.526 13.4394 41.2637 12.6904C42.1048 11.9965 43.1592 11.6172 44.2471 11.6172ZM35.834 8.04004H37.5049C37.6937 8.04011 37.7832 8.14015 37.7832 8.33008V16.8799C37.7832 17.2597 37.952 17.4501 38.2998 17.4502C38.4471 17.4563 38.595 17.4396 38.7373 17.4004C38.9361 17.4004 39.0456 17.4599 39.0557 17.6396L39.2051 18.8896C39.2122 18.926 39.2116 18.9639 39.2031 19C39.1947 19.036 39.1788 19.0702 39.1562 19.0996C39.1336 19.129 39.105 19.1535 39.0723 19.1709C39.0397 19.1881 39.0035 19.1979 38.9668 19.2002C38.601 19.3217 38.2183 19.3852 37.833 19.3896C37.2415 19.4218 36.6561 19.2533 36.1719 18.9102C35.9696 18.7594 35.8073 18.5611 35.6982 18.333C35.5891 18.1047 35.5367 17.8527 35.5459 17.5996V8.33008C35.541 8.29102 35.545 8.25115 35.5576 8.21387C35.5704 8.17654 35.5915 8.14213 35.6191 8.11426C35.6469 8.08633 35.6807 8.06467 35.7178 8.05176C35.7549 8.03896 35.7949 8.03515 35.834 8.04004ZM63.4297 11.6201C64.5169 11.6202 65.5704 11.9984 66.4121 12.6904C67.1328 13.4463 67.5352 14.4527 67.5352 15.5C67.5351 16.5473 67.1328 17.5537 66.4121 18.3096V18.3203C65.5712 19.0139 64.5172 19.3925 63.4297 19.3926C62.342 19.3926 61.2873 19.014 60.4463 18.3203C59.7248 17.5627 59.3223 16.5538 59.3223 15.5049C59.3223 14.4559 59.7249 13.448 60.4463 12.6904C61.2882 11.9983 62.3423 11.6201 63.4297 11.6201ZM87.3545 11.5898C88.1758 11.5619 88.9893 11.7663 89.7012 12.1797C89.9876 12.3432 90.2359 12.5692 90.4248 12.8408C90.6146 13.1124 90.7402 13.4231 90.7949 13.75C90.7949 13.95 90.7054 14.0498 90.5264 14.0498H89.0547C88.9932 14.0534 88.9315 14.0388 88.8779 14.0068C88.8253 13.9748 88.7827 13.9268 88.7568 13.8701C88.6584 13.6333 88.4729 13.4432 88.2393 13.3398C87.9759 13.2014 87.6818 13.1322 87.3848 13.1396C87.0934 13.1237 86.8016 13.1821 86.5391 13.3096C86.4466 13.3456 86.3663 13.4092 86.3096 13.4912C86.253 13.5731 86.2218 13.6698 86.2207 13.7695C86.2267 13.9063 86.2768 14.0383 86.3633 14.1445C86.4488 14.2505 86.5661 14.3263 86.6982 14.3604C87.0801 14.505 87.4771 14.6056 87.8818 14.6602C88.3471 14.7217 88.8084 14.8083 89.2637 14.9199C89.7092 15.0214 90.1155 15.2546 90.4277 15.5898C90.5947 15.7745 90.7241 15.9905 90.8076 16.2256C90.8911 16.4607 90.928 16.7106 90.915 16.96C90.924 17.3057 90.8418 17.6481 90.6797 17.9531C90.5176 18.2578 90.2804 18.5154 89.9902 18.7002C89.2475 19.1797 88.3761 19.4199 87.4941 19.3896C86.6012 19.4265 85.7161 19.2117 84.9385 18.7695C84.6262 18.5805 84.36 18.324 84.1602 18.0176C83.9603 17.7112 83.8329 17.3632 83.7852 17C83.7852 16.8 83.8545 16.7002 84.0732 16.7002H85.5352C85.6046 16.703 85.6719 16.725 85.7295 16.7637C85.7872 16.8026 85.8344 16.8564 85.8633 16.9199C86.0721 17.4599 86.6191 17.7305 87.4941 17.7305C87.7993 17.7444 88.1036 17.682 88.3789 17.5498C88.4742 17.5067 88.5556 17.4386 88.6152 17.3525C88.6749 17.2662 88.7098 17.1644 88.7168 17.0596C88.7166 16.7998 88.5573 16.6199 88.2393 16.5C87.8615 16.3738 87.4718 16.2898 87.0762 16.25C86.6068 16.1966 86.142 16.1131 85.6836 16C85.2383 15.8986 84.8327 15.6652 84.5205 15.3301C84.3365 15.1023 84.2016 14.8384 84.123 14.5557C84.0445 14.273 84.0247 13.9771 84.0645 13.6865C84.1042 13.3959 84.2034 13.1166 84.3555 12.8662C84.5076 12.6157 84.7096 12.3994 84.9482 12.2305C85.6652 11.7714 86.5053 11.5471 87.3545 11.5898ZM107.66 11.6299C108.109 11.6079 108.555 11.6928 108.965 11.877C109.375 12.0612 109.735 12.3399 110.018 12.6904C110.347 12.3307 110.752 12.0485 111.202 11.8652C111.652 11.6821 112.138 11.6015 112.623 11.6299C113.057 11.6095 113.491 11.6804 113.896 11.8369C114.301 11.9936 114.67 12.2328 114.979 12.54C115.282 12.8605 115.516 13.2392 115.668 13.6533C115.82 14.0676 115.887 14.5092 115.864 14.9502V16.8799C115.864 17.2598 116.033 17.4501 116.352 17.4502C116.506 17.4574 116.66 17.4408 116.81 17.4004C117.015 17.4005 117.125 17.48 117.138 17.6396L117.227 18.8896C117.235 18.9254 117.236 18.963 117.229 18.999C117.222 19.0352 117.207 19.07 117.186 19.0996C117.164 19.1292 117.135 19.1535 117.103 19.1709C117.071 19.1883 117.035 19.1983 116.998 19.2002C116.628 19.3211 116.243 19.3845 115.854 19.3896C115.263 19.4203 114.68 19.2517 114.194 18.9102C113.985 18.7638 113.814 18.5674 113.697 18.3389C113.581 18.1103 113.522 17.8561 113.527 17.5996V15.082C113.509 14.6929 113.363 14.3186 113.11 14.0195C112.971 13.8633 112.797 13.7405 112.605 13.6592C112.413 13.578 112.205 13.5404 111.996 13.5498C111.808 13.5427 111.621 13.579 111.448 13.6553C111.276 13.7315 111.124 13.846 111.002 13.9902C110.772 14.2835 110.641 14.6405 110.624 15.0107V18.8604C110.624 19.05 110.534 19.1503 110.346 19.1504H108.606C108.587 19.1484 108.568 19.1441 108.55 19.1377C108.512 19.1248 108.478 19.1041 108.45 19.0762C108.422 19.0483 108.402 19.0139 108.389 18.9766C108.376 18.9393 108.372 18.8996 108.377 18.8604V15.084C108.361 14.6986 108.226 14.3256 107.988 14.0195C107.867 13.8728 107.715 13.7549 107.543 13.6738C107.372 13.5926 107.184 13.5499 106.994 13.5498C106.791 13.5416 106.589 13.5766 106.4 13.6523C106.212 13.7282 106.042 13.8437 105.9 13.9902C105.616 14.3146 105.47 14.7381 105.493 15.1699V18.9189C105.491 18.9385 105.487 18.9579 105.48 18.9766C105.468 19.0139 105.447 19.0483 105.419 19.0762C105.391 19.104 105.357 19.1248 105.32 19.1377C105.301 19.1441 105.282 19.1484 105.263 19.1504H103.583C103.395 19.1502 103.305 19.05 103.305 18.8604V14.1504C103.317 14.0702 103.31 13.9881 103.284 13.9111C103.259 13.8343 103.217 13.7643 103.159 13.707C103.103 13.6498 103.033 13.6066 102.956 13.5811C102.88 13.5556 102.798 13.5479 102.719 13.5596H102.391C102.172 13.5596 102.063 13.4801 102.062 13.3203V12.0859C102.068 12.0317 102.088 11.9798 102.119 11.9346C102.161 11.8746 102.221 11.83 102.291 11.8096C102.635 11.684 102.999 11.6231 103.364 11.6299C103.715 11.5998 104.069 11.6703 104.382 11.833C104.695 11.9958 104.956 12.2443 105.135 12.5498C105.47 12.2301 105.867 11.9835 106.302 11.8252C106.736 11.6669 107.199 11.6005 107.66 11.6299ZM69.3457 11.8701H71.0166C71.2055 11.8701 71.2949 11.9702 71.2949 12.1602V16.8799C71.2949 17.2597 71.4639 17.4501 71.8018 17.4502C71.9529 17.4557 72.1038 17.439 72.25 17.4004C72.4485 17.4005 72.5573 17.46 72.5674 17.6396L72.7168 18.8896C72.7237 18.9261 72.7228 18.9638 72.7148 19C72.7059 19.0361 72.6899 19.0702 72.667 19.0996C72.6451 19.1289 72.6167 19.1536 72.584 19.1709C72.5512 19.1882 72.5152 19.1981 72.4785 19.2002C72.1097 19.3225 71.7237 19.386 71.335 19.3896C70.7443 19.4188 70.1591 19.2505 69.6738 18.9102C69.475 18.7572 69.3152 18.558 69.208 18.3301C69.1007 18.1022 69.0491 17.8516 69.0576 17.5996V12.1602C69.0529 12.1211 69.0566 12.0812 69.0693 12.0439C69.082 12.0067 69.1032 11.9723 69.1309 11.9443C69.1587 11.9163 69.1933 11.8946 69.2305 11.8818C69.2675 11.8691 69.3069 11.8654 69.3457 11.8701ZM2.12402 12.9199C3.41744 12.9473 4.67424 13.3717 5.72363 14.1396C6.34577 14.6009 7.09822 14.8505 7.87109 14.8506C8.64415 14.8506 9.39733 14.6009 10.0195 14.1396C11.1532 13.3462 12.5016 12.9209 13.8828 12.9209C15.2641 12.9209 16.6124 13.3461 17.7461 14.1396C18.3682 14.6009 19.1207 14.8505 19.8936 14.8506C20.6666 14.8506 21.4198 14.6009 22.042 14.1396C23.1476 13.3311 24.4837 12.9033 25.8506 12.9199H27.4512V16.1299H25.8506C25.0744 16.1092 24.3147 16.3601 23.7021 16.8398C22.5684 17.6334 21.2202 18.0596 19.8389 18.0596C18.4576 18.0595 17.1093 17.6334 15.9756 16.8398C15.3639 16.3588 14.6044 16.1075 13.8281 16.1299C13.0523 16.1109 12.293 16.3615 11.6797 16.8398C10.5481 17.6339 9.2012 18.0596 7.82129 18.0596C6.44146 18.0595 5.09444 17.6339 3.96289 16.8398C3.35041 16.3603 2.59141 16.1092 1.81543 16.1299H0.213867V12.9199H2.12402ZM53.7041 13.4199C53.445 13.4117 53.1869 13.4606 52.9482 13.5625C52.7096 13.6644 52.4954 13.8167 52.3213 14.0098C51.9551 14.4204 51.7624 14.9587 51.7842 15.5098C51.7662 16.0555 51.9549 16.5882 52.3115 17C52.486 17.1926 52.6999 17.3455 52.9385 17.4473C53.1769 17.549 53.4345 17.5973 53.6934 17.5898C53.9495 17.5978 54.205 17.5493 54.4404 17.4473C54.6756 17.3454 54.8854 17.1925 55.0557 17C55.3862 16.5707 55.5664 16.043 55.5664 15.5C55.5664 14.957 55.3862 14.4294 55.0557 14C54.886 13.81 54.6769 13.6597 54.4434 13.5596C54.21 13.4595 53.9577 13.4116 53.7041 13.4199ZM78.6836 13.3506C78.427 13.3506 78.1732 13.4026 77.9375 13.5039C77.7009 13.6053 77.4885 13.7542 77.3115 13.9404C76.9497 14.3649 76.7614 14.9112 76.7842 15.4697C76.7643 16.028 76.9525 16.5739 77.3115 17C77.4884 17.1862 77.701 17.3343 77.9375 17.4355C78.1732 17.5368 78.427 17.5898 78.6836 17.5898C78.9401 17.5898 79.194 17.5368 79.4297 17.4355C79.6651 17.3343 79.8788 17.1862 80.0557 17C80.4296 16.5811 80.6254 16.0319 80.6025 15.4697C80.6283 14.9072 80.4314 14.3575 80.0557 13.9404C79.8787 13.7542 79.6653 13.6053 79.4297 13.5039C79.194 13.4026 78.9401 13.3506 78.6836 13.3506ZM44.2568 13.5088C43.7315 13.5088 43.2245 13.705 42.835 14.0596C42.4824 14.4673 42.2881 14.99 42.2881 15.5303C42.2881 16.0705 42.4825 16.5925 42.835 17C43.2246 17.3548 43.7313 17.5518 44.2568 17.5518C44.7824 17.5517 45.2892 17.3549 45.6787 17C46.0313 16.5925 46.2255 16.0705 46.2256 15.5303C46.2256 14.99 46.0313 14.4673 45.6787 14.0596C45.2893 13.7049 44.7823 13.5088 44.2568 13.5088ZM63.4395 13.5098C63.1764 13.5016 62.9137 13.5462 62.668 13.6406C62.4223 13.735 62.1974 13.8773 62.0068 14.0596C61.66 14.47 61.4697 14.9917 61.4697 15.5303C61.4698 16.0687 61.6601 16.5897 62.0068 17C62.1973 17.1823 62.4223 17.3245 62.668 17.4189C62.9137 17.5133 63.1764 17.5579 63.4395 17.5498C63.7006 17.5566 63.9603 17.5112 64.2041 17.417C64.4481 17.3226 64.6719 17.1812 64.8613 17C65.208 16.5897 65.3984 16.0687 65.3984 15.5303C65.3984 14.9917 65.2081 14.47 64.8613 14.0596C64.6719 13.8784 64.4481 13.737 64.2041 13.6426C63.9604 13.5484 63.7005 13.503 63.4395 13.5098ZM13.833 0.185547C16.8717 0.185583 19.8228 1.20798 22.2168 3.08984C24.6108 4.97174 26.3104 7.60507 27.0439 10.5703H25.8506C23.8376 10.5405 21.8655 11.145 20.2119 12.2998C20.1166 12.3693 20.0173 12.4332 19.9141 12.4902H19.7744C19.6713 12.4332 19.572 12.3693 19.4766 12.2998C17.8084 11.1717 15.8434 10.5694 13.833 10.5693C11.8227 10.5693 9.85768 11.1717 8.18945 12.2998C8.09415 12.3693 7.99485 12.4332 7.8916 12.4902H7.75195C7.6488 12.4332 7.54951 12.3693 7.4541 12.2998C5.80061 11.145 3.8284 10.5405 1.81543 10.5703H0.62207C1.35575 7.60501 3.05527 4.97174 5.44922 3.08984C7.84326 1.20798 10.7944 0.185547 13.833 0.185547ZM70.1758 8.06055C70.5238 8.06055 70.8605 8.18456 71.126 8.41016C71.2452 8.52318 71.3397 8.65938 71.4053 8.81055C71.4699 8.96195 71.5029 9.12524 71.5029 9.29004C71.5029 9.45482 71.4699 9.61825 71.4053 9.76953C71.3397 9.92068 71.2452 10.0569 71.126 10.1699C70.8635 10.4013 70.5248 10.5293 70.1758 10.5293C69.8269 10.5292 69.4891 10.4012 69.2266 10.1699C69.1075 10.0569 69.0122 9.92074 68.9473 9.76953C68.8824 9.61825 68.8496 9.45482 68.8496 9.29004C68.8496 9.12524 68.8824 8.96195 68.9473 8.81055C69.0122 8.65932 69.1075 8.52322 69.2266 8.41016C69.492 8.18466 69.8279 8.06066 70.1758 8.06055Z" fill="#080829"/>
</svg>
