<svg width="116" height="28" viewBox="0 0 116 28" fill="none" xmlns="http://www.w3.org/2000/svg">
<path d="M12.249 4.72949C9.80416 4.72949 7.45926 5.70681 5.73047 7.44531C4.00183 9.18379 3.03027 11.5415 3.03027 14C3.03027 16.4585 4.0018 18.8162 5.73047 20.5547C7.45926 22.2932 9.80416 23.2705 12.249 23.2705V27.0771H0.313477V0.922852H12.249V4.72949ZM47.0566 10.9365C47.5449 10.9133 48.0317 11.0051 48.4785 11.2041C48.9252 11.4031 49.3199 11.704 49.6309 12.083V11.1875L52.2051 11.1338V19.5625C52.205 22.5359 49.8892 23.7987 47.5469 23.7988C46.7205 23.8669 45.8913 23.7021 45.1533 23.3223C44.4154 22.9425 43.7975 22.363 43.3691 21.6494L45.623 20.3418C45.8056 20.7117 46.0957 21.0168 46.4551 21.2168C46.8147 21.4168 47.2268 21.5021 47.6357 21.4609C47.8962 21.4931 48.1609 21.4672 48.4102 21.3848C48.6593 21.3023 48.8876 21.1658 49.0781 20.9844C49.2687 20.803 49.4171 20.5816 49.5127 20.3359C49.6082 20.0902 49.6485 19.8258 49.6309 19.5625V18.7471C49.3199 19.1261 48.9252 19.4269 48.4785 19.626C48.0317 19.825 47.5449 19.9168 47.0566 19.8936C45.8757 19.8936 44.7433 19.4218 43.9082 18.582C43.073 17.7422 42.6035 16.6028 42.6035 15.415C42.6036 14.2274 43.073 13.0888 43.9082 12.249C44.7433 11.4092 45.8756 10.9365 47.0566 10.9365ZM74.4004 10.8926C74.9841 10.919 75.5588 11.0604 76.0889 11.3096C76.6177 11.5588 77.0936 11.9108 77.4873 12.3447C77.882 12.7789 78.1878 13.2869 78.3877 13.8398C78.5866 14.3927 78.6762 14.9799 78.6494 15.5674C78.6792 16.1571 78.5924 16.7476 78.3955 17.3037C78.1976 17.8596 77.8918 18.3707 77.4971 18.8076C77.1024 19.2444 76.6255 19.5987 76.0947 19.8496C75.5627 20.1005 74.9871 20.2431 74.4004 20.2695C73.9024 20.3028 73.4036 20.2227 72.9414 20.0352C72.479 19.8475 72.0636 19.5577 71.7285 19.1865V23.5664H69.0566V11.1338H71.7285V11.9668C72.0646 11.5966 72.48 11.3082 72.9424 11.1221C73.4046 10.936 73.9034 10.8576 74.4004 10.8926ZM12.25 4.72949C14.6948 4.72962 17.0389 5.70694 18.7676 7.44531C20.4965 9.1838 21.4678 11.5414 21.4678 14C21.4678 16.4586 20.4965 18.8162 18.7676 20.5547C17.0389 22.2931 14.6948 23.2704 12.25 23.2705V4.72949ZM90.6465 16.1943C90.6256 16.4058 90.6502 16.6195 90.7197 16.8203C90.7883 17.0211 90.8998 17.205 91.0459 17.3584C91.1931 17.5116 91.3715 17.6315 91.5684 17.709C91.7651 17.7863 91.9759 17.8193 92.1875 17.8066C93.149 17.8066 93.8271 17.2336 93.8271 16.0156V11.1338H96.4629V20.001H93.791V19.168C93.4867 19.5367 93.1016 19.8291 92.666 20.0205C92.2296 20.2118 91.7544 20.2966 91.2793 20.2695C89.4983 20.2695 87.9746 18.989 87.9746 16.5977V11.1338H90.6465V16.1943ZM35.2266 11.2207C36.0827 10.8657 37.0248 10.7744 37.9326 10.958C38.8403 11.1418 39.6734 11.5917 40.3262 12.252C40.979 12.9124 41.4222 13.7531 41.5996 14.667C41.7769 15.5809 41.6803 16.527 41.3223 17.3857C40.9642 18.2442 40.3612 18.9769 39.5889 19.4902C38.8164 20.0037 37.9094 20.2748 36.9834 20.2695C36.3693 20.2744 35.7604 20.1559 35.1924 19.9209C34.6244 19.6859 34.1088 19.3392 33.6758 18.9014C33.2428 18.4634 32.9013 17.9426 32.6709 17.3701C32.4407 16.7977 32.3256 16.1849 32.334 15.5674C32.334 14.6363 32.609 13.726 33.124 12.9521C33.6389 12.1784 34.3707 11.5758 35.2266 11.2207ZM56.5986 11.2227C57.4535 10.8671 58.3945 10.7739 59.3018 10.9561C60.2091 11.1383 61.0426 11.5876 61.6963 12.2461C62.3495 12.9046 62.7942 13.7429 62.9736 14.6553C63.1531 15.568 63.0593 16.5141 62.7041 17.373C62.3488 18.2322 61.7476 18.9658 60.9775 19.4814C60.2075 19.9971 59.303 20.2711 58.3779 20.2695C57.7626 20.2755 57.1515 20.1582 56.582 19.9238C56.0126 19.6895 55.4951 19.3432 55.0605 18.9053C54.6259 18.4673 54.2827 17.9462 54.0508 17.373C53.8191 16.8 53.7028 16.1861 53.71 15.5674C53.71 14.637 53.9849 13.7276 54.499 12.9541C55.0132 12.1807 55.7438 11.5783 56.5986 11.2227ZM83.1738 10.8926C83.8718 10.8611 84.5642 11.0199 85.1797 11.3525C85.7941 11.6853 86.3071 12.1797 86.665 12.7822L84.3682 14C84.2658 13.769 84.1003 13.5729 83.8896 13.4346C83.6799 13.2963 83.4341 13.2217 83.1826 13.2207C82.7202 13.2207 82.4434 13.4005 82.4434 13.7139C82.4447 14.7343 86.7812 14.0633 86.7812 17.3408C86.7812 19.3828 84.9995 20.2518 83.1123 20.252C82.3417 20.3217 81.5688 20.157 80.8916 19.7803C80.2154 19.4035 79.6674 18.8312 79.3174 18.1377L81.6152 16.8301C81.7057 17.1496 81.9035 17.4284 82.1738 17.6191C82.4442 17.8099 82.7725 17.901 83.1025 17.8779C83.7348 17.8779 84.0555 17.6814 84.0557 17.3232C84.0557 16.3469 79.7178 16.866 79.7178 13.7939C79.7179 11.8593 81.3392 10.8926 83.1738 10.8926ZM30.8379 20.001H28.166V7.05859H30.8379V20.001ZM67.2129 20.001H64.541V11.1338H67.2129V20.001ZM108.202 10.8916C110.286 10.8917 111.604 12.3434 111.604 14.5557V20.001H108.932V14.7881C108.932 13.8925 108.513 13.3369 107.667 13.3369C106.822 13.3369 106.287 13.9551 106.287 15.0029V20.001H103.614V14.7881C103.614 13.8925 103.196 13.3369 102.35 13.3369C101.504 13.337 100.97 13.9552 100.97 15.0029V20.001H98.2979V11.1338H100.97V11.9492C101.247 11.5893 101.607 11.3036 102.021 11.1191C102.434 10.9347 102.888 10.8563 103.338 10.8916C103.79 10.8679 104.241 10.963 104.645 11.167C105.049 11.3711 105.395 11.6781 105.646 12.0566C105.94 11.6611 106.328 11.3472 106.775 11.1436C107.222 10.9399 107.713 10.8527 108.202 10.8916ZM74.6416 13.6523C74.2559 13.5009 73.8343 13.4676 73.4307 13.5557C73.026 13.644 72.6555 13.8499 72.3682 14.1484C72.0798 14.4469 71.8851 14.8252 71.8096 15.2344C71.7341 15.6432 71.7795 16.0654 71.9414 16.4482C72.1035 16.8311 72.3747 17.1578 72.7197 17.3867C73.0657 17.6156 73.4703 17.737 73.8838 17.7354C74.1671 17.7473 74.4504 17.6992 74.7139 17.5938C74.9774 17.4882 75.2162 17.3276 75.4131 17.123C75.6109 16.9185 75.7629 16.6741 75.8604 16.4062C75.9578 16.1382 75.9974 15.852 75.9766 15.5674C75.9666 15.1515 75.8333 14.7479 75.5957 14.4072C75.358 14.0667 75.0263 13.8038 74.6416 13.6523ZM37.7422 13.7197C37.3703 13.5733 36.9635 13.5401 36.5732 13.625C36.183 13.7097 35.8266 13.9087 35.5479 14.1963C35.2691 14.484 35.0809 14.8476 35.0068 15.2422C34.9327 15.6368 34.9757 16.045 35.1309 16.415C35.286 16.7848 35.5463 17.1003 35.8789 17.3223C36.2115 17.5443 36.6017 17.6628 37.001 17.6631C37.2729 17.6685 37.5436 17.6171 37.7949 17.5127C38.0461 17.4084 38.2732 17.2532 38.4619 17.0566C38.6508 16.86 38.7975 16.6262 38.8926 16.3701C38.9876 16.1138 39.0294 15.8405 39.0146 15.5674H39.0322C39.0217 15.1661 38.8934 14.7768 38.6641 14.4482C38.4346 14.1196 38.114 13.866 37.7422 13.7197ZM59.1162 13.7188C58.7439 13.5727 58.3368 13.5404 57.9463 13.626C57.5558 13.7113 57.1992 13.9109 56.9209 14.1992C56.6426 14.4877 56.4549 14.8528 56.3818 15.248C56.3088 15.6432 56.3534 16.0511 56.5098 16.4209C56.6663 16.7908 56.9278 17.1062 57.2617 17.3271C57.5955 17.5481 57.987 17.6647 58.3867 17.6631C58.6585 17.6684 58.9285 17.6181 59.1797 17.5137C59.431 17.4094 59.6578 17.2533 59.8467 17.0566C60.0356 16.86 60.1823 16.6262 60.2773 16.3701C60.3724 16.1138 60.4141 15.8405 60.3994 15.5674H60.4082C60.3976 15.1658 60.2697 14.776 60.04 14.4473C59.8102 14.1185 59.4886 13.8649 59.1162 13.7188ZM48.375 13.3398C47.9864 13.1633 47.554 13.1081 47.1338 13.1807C46.7135 13.2532 46.3236 13.4503 46.0156 13.7471C45.7079 14.0437 45.4952 14.4265 45.4053 14.8457C45.3154 15.2649 45.352 15.7016 45.5107 16.0996C45.6696 16.4976 45.9438 16.8387 46.2969 17.0791C46.6502 17.3195 47.0668 17.4479 47.4932 17.4482C47.7715 17.4684 48.0511 17.4301 48.3135 17.335C48.5759 17.2398 48.8152 17.0897 49.0166 16.8955C49.2179 16.7015 49.3767 16.4675 49.4824 16.208C49.5881 15.9485 49.639 15.669 49.6309 15.3887C49.6486 14.9602 49.5383 14.536 49.3145 14.1709C49.0907 13.8059 48.7636 13.5164 48.375 13.3398ZM113.849 7.13965C114.93 7.13991 115.808 8.02148 115.809 9.10938C115.809 10.1975 114.93 11.0798 113.849 11.0801C112.767 11.0801 111.89 10.1977 111.89 9.10938C111.89 8.02132 112.767 7.13965 113.849 7.13965ZM65.2617 7.28711C65.5514 7.16657 65.8704 7.1358 66.1777 7.19727C66.485 7.25881 66.7675 7.40998 66.9893 7.63281C67.2109 7.85577 67.3616 8.1401 67.4229 8.44922C67.484 8.75835 67.4529 9.07884 67.333 9.37012C67.2131 9.66135 67.0097 9.91074 66.749 10.0859C66.4884 10.261 66.1817 10.3545 65.8682 10.3545C65.4491 10.3498 65.0483 10.1808 64.752 9.88281C64.4557 9.585 64.2879 9.18211 64.2832 8.76074C64.2832 8.44565 64.3757 8.13714 64.5498 7.875C64.724 7.6128 64.9721 7.40781 65.2617 7.28711Z" fill="#080829"/>
</svg>
