<svg width="136" height="28" viewBox="0 0 136 28" fill="none" xmlns="http://www.w3.org/2000/svg">
<path d="M22.5237 11.4384C23.1132 11.2647 23.7373 11.2437 24.3372 11.3768C24.9371 11.51 25.4942 11.7938 25.9563 12.201C26.4184 12.6083 26.7707 13.1263 26.9807 13.7069C27.1907 14.2876 27.2524 14.9127 27.1584 15.5233C27.0645 16.1338 26.8182 16.7105 26.4436 17.2001C26.069 17.6896 25.5775 18.0763 25.0149 18.3241C24.4521 18.5718 23.8357 18.6733 23.2239 18.618L23.2424 18.6356C22.6162 18.5824 21.986 18.6677 21.3958 18.8846C20.8056 19.1017 20.2689 19.4457 19.8245 19.8925C19.3801 20.3395 19.0374 20.8789 18.8215 21.4725C18.6057 22.0662 18.5216 22.7001 18.5745 23.33L18.5559 23.3124C18.6262 24.0655 18.4639 24.8223 18.0911 25.4794C17.7181 26.1365 17.1518 26.6621 16.4709 26.9843C15.7902 27.3062 15.0274 27.4091 14.2864 27.2792C13.5451 27.1493 12.8617 26.7925 12.3293 26.2577C11.7972 25.7229 11.4416 25.0362 11.3118 24.2909C11.1819 23.5457 11.284 22.7786 11.6038 22.0936C11.9234 21.4088 12.445 20.8394 13.0979 20.4637C13.751 20.0881 14.504 19.9239 15.2532 19.994L15.2356 19.9764C15.8617 20.0296 16.4921 19.9445 17.0823 19.7274C17.6727 19.5103 18.2092 19.1655 18.6536 18.7186C19.0978 18.2718 19.4397 17.7329 19.6555 17.1395C19.8714 16.546 19.9563 15.9118 19.9036 15.2821L19.9211 15.2997C19.8698 14.7647 19.9357 14.2248 20.1155 13.7186C20.2953 13.2123 20.5843 12.7523 20.9612 12.371H20.9641C21.3977 11.9332 21.9341 11.6122 22.5237 11.4384ZM21.0149 1.95984C21.6959 1.63784 22.4591 1.53462 23.2004 1.66492C23.9418 1.79512 24.6254 2.15218 25.1575 2.68738C25.6895 3.22246 26.0446 3.9097 26.1741 4.65515C26.3035 5.40065 26.2013 6.1685 25.8811 6.85339C25.5609 7.53814 25.0384 8.10703 24.385 8.4823C23.7315 8.8576 22.9781 9.02087 22.2288 8.95007L22.2483 8.96765C21.6219 8.91445 20.991 8.99957 20.4006 9.21667C19.8106 9.43363 19.2747 9.77779 18.8303 10.2245C18.3859 10.6715 18.0433 11.211 17.8274 11.8046C17.6115 12.3982 17.5274 13.0321 17.5803 13.662L17.5618 13.6444C17.6149 14.1797 17.5483 14.7199 17.3684 15.2264C17.1884 15.7331 16.8992 16.1938 16.5208 16.5741C16.1424 16.9543 15.6847 17.2451 15.1809 17.4257C14.6769 17.6062 14.1389 17.6719 13.6067 17.618L13.6252 17.6356C12.999 17.5825 12.3688 17.6677 11.7786 17.8846C11.1883 18.1017 10.6518 18.4456 10.2073 18.8925C9.7629 19.3394 9.42121 19.879 9.20532 20.4725C8.98944 21.0662 8.90438 21.7001 8.95728 22.33L8.93872 22.3124C9.00892 23.0656 8.84679 23.8224 8.47388 24.4794C8.1007 25.1366 7.53477 25.6622 6.85376 25.9843C6.17277 26.3062 5.40946 26.4093 4.66821 26.2792C3.92692 26.149 3.24328 25.7919 2.71118 25.2567C2.17902 24.7217 1.82408 24.0344 1.69458 23.2889C1.56501 22.5434 1.66725 21.7756 1.98755 21.0907C2.30775 20.4059 2.83017 19.8371 3.48364 19.4618C4.13706 19.0866 4.88975 18.9233 5.63892 18.994L5.62134 18.9764C6.24762 19.0294 6.87783 18.9435 7.46802 18.7264C8.0583 18.5092 8.59481 18.1655 9.03931 17.7186C9.48351 17.2719 9.8253 16.7328 10.0413 16.1395C10.2571 15.546 10.342 14.9119 10.2893 14.2821L10.3069 14.2997C10.2537 13.7645 10.3195 13.2242 10.4993 12.7177C10.6793 12.211 10.9694 11.7503 11.3479 11.37C11.7263 10.9898 12.1839 10.6989 12.6877 10.5184C13.1917 10.3378 13.7296 10.2721 14.262 10.326L14.2444 10.3065C14.8706 10.3598 15.5008 10.2754 16.0911 10.0585C16.6815 9.84147 17.2179 9.49756 17.6624 9.05066C18.1068 8.60369 18.4485 8.06424 18.6643 7.47058C18.8801 6.87683 18.9644 6.24301 18.9114 5.61316L18.9299 5.63171C18.8596 4.87844 19.0218 4.12176 19.3948 3.46472C19.7679 2.80753 20.3338 2.28184 21.0149 1.95984ZM58.8469 9.92957C59.3928 9.90327 59.9375 10.0068 60.4368 10.2303C60.9358 10.4538 61.3761 10.7913 61.7219 11.2167V10.2069L64.5969 10.2089V19.6093C64.5968 22.9349 62.0177 24.3406 59.3997 24.3407C58.4779 24.4101 57.5547 24.2229 56.7317 23.7997C55.9088 23.3763 55.2172 22.7335 54.7336 21.9413L57.2532 20.4764C57.4564 20.8893 57.7809 21.2302 58.1819 21.453C58.5828 21.6756 59.0418 21.7692 59.4973 21.7225C59.7886 21.7631 60.0855 21.7375 60.3655 21.6473C60.6455 21.557 60.9019 21.4044 61.1155 21.201C61.3291 20.9977 61.4949 20.7489 61.5999 20.4725C61.7048 20.1964 61.7462 19.9 61.7219 19.6053V18.7001C61.3761 19.1255 60.9359 19.4639 60.4368 19.6874C59.9375 19.9108 59.3927 20.0135 58.8469 19.9872C57.5483 19.9459 56.3165 19.3981 55.4124 18.4598C54.5081 17.5214 54.0023 16.2655 54.0022 14.9589C54.0022 13.6521 54.5081 12.3964 55.4124 11.4579C56.3166 10.5194 57.5482 9.97087 58.8469 9.92957ZM89.3821 9.93152C90.0332 9.96203 90.6715 10.1218 91.26 10.4012C91.8497 10.6808 92.3791 11.0756 92.8157 11.5614C93.2531 12.0471 93.5911 12.6149 93.8088 13.2323C94.0266 13.8497 94.122 14.5047 94.0872 15.1591C94.121 15.8132 94.0266 16.4676 93.8079 17.0848C93.5901 17.7021 93.2521 18.2701 92.8157 18.7557C92.3781 19.2413 91.8497 19.6353 91.26 19.9149C90.6704 20.1943 90.0323 20.354 89.3821 20.3846C88.8352 20.4146 88.2867 20.3221 87.7795 20.1132C87.2725 19.9042 86.8183 19.584 86.4495 19.1766V24.0682H83.4963V10.2089H86.4495V11.1385C86.8182 10.7316 87.2737 10.4126 87.7805 10.204C88.2877 9.99518 88.8352 9.90152 89.3821 9.93152ZM99.1819 9.93152C99.9514 9.90704 100.713 10.0914 101.388 10.4637C102.063 10.8363 102.627 11.3839 103.02 12.0497L100.5 13.4159C100.39 13.1566 100.206 12.936 99.9709 12.7811C99.7363 12.6263 99.4622 12.5438 99.1819 12.5448C98.67 12.5448 98.355 12.7448 98.3547 13.0985C98.3587 14.2275 103.201 13.475 103.201 17.1376C103.201 19.4144 101.234 20.3845 99.1077 20.3846C98.2485 20.4629 97.3859 20.2802 96.6311 19.8602C95.8765 19.4402 95.2641 18.8025 94.8743 18.0292L97.4329 16.5643C97.5363 16.9217 97.7587 17.2327 98.0618 17.4452C98.3659 17.6576 98.734 17.7592 99.1028 17.7323C99.8108 17.7323 100.166 17.514 100.166 17.119C100.166 16.029 95.3225 16.6036 95.3225 13.1786C95.3227 11.0198 97.1345 9.93152 99.1819 9.93152ZM107.496 15.8514C107.472 16.0871 107.498 16.3255 107.574 16.5497C107.65 16.774 107.775 16.979 107.938 17.1503C108.101 17.3215 108.299 17.4555 108.519 17.5419C108.737 17.6282 108.973 17.6656 109.208 17.6512C110.291 17.6512 111.039 17.018 111.039 15.6122V10.2118L113.99 10.2089V20.1093H111.036V19.1776C110.695 19.5884 110.263 19.9129 109.774 20.1229C109.284 20.3329 108.753 20.4224 108.222 20.3856C106.233 20.3856 104.542 18.9609 104.542 16.286V10.2089H107.496V15.8514ZM45.5969 10.2968C46.5499 9.89646 47.6 9.78906 48.6135 9.98914C49.627 10.1891 50.5585 10.6878 51.2903 11.4208C52.022 12.1536 52.5218 13.088 52.7249 14.1063C52.9278 15.1247 52.8253 16.1815 52.4309 17.1415C52.0366 18.1012 51.3674 18.9216 50.509 19.4989C49.6506 20.0763 48.6413 20.3846 47.6086 20.3846C46.9231 20.3924 46.2428 20.2633 45.6077 20.0038C44.9726 19.7442 44.3952 19.3595 43.9094 18.8729C43.4237 18.3865 43.0393 17.8074 42.7786 17.1698C42.5179 16.5321 42.3858 15.8485 42.3909 15.1591C42.3867 14.1204 42.6892 13.1038 43.26 12.2382C43.8307 11.3727 44.6441 10.6972 45.5969 10.2968ZM69.4758 10.2968C70.4289 9.89645 71.4789 9.78904 72.4924 9.98914C73.5059 10.1891 74.4374 10.6878 75.1692 11.4208C75.9008 12.1536 76.3997 13.0881 76.6028 14.1063C76.8058 15.1247 76.7041 16.1815 76.3098 17.1415C75.9155 18.1012 75.2463 18.9216 74.3879 19.4989C73.5296 20.0763 72.5203 20.3846 71.4875 20.3846C70.8021 20.3924 70.1217 20.2633 69.4866 20.0038C68.8514 19.7442 68.2741 19.3595 67.7883 18.8729C67.3026 18.3864 66.9171 17.8075 66.6565 17.1698C66.3958 16.5322 66.2647 15.8485 66.2698 15.1591C66.2657 14.1204 66.5681 13.1038 67.1389 12.2382C67.7096 11.3727 68.523 10.6972 69.4758 10.2968ZM81.3352 20.1093H78.3762L78.3801 10.2089H81.3352V20.1093ZM40.718 20.1083H37.7649V5.65515H40.718V20.1083ZM127.184 9.93054C129.444 9.93171 130.924 11.5553 130.924 14.0302V20.1083H127.971V14.287C127.971 13.297 127.499 12.6639 126.554 12.6639C125.57 12.664 125.018 13.3573 125.018 14.5253V20.1083H122.066V14.287C122.066 13.297 121.592 12.6639 120.647 12.6639C119.663 12.6642 119.112 13.3575 119.112 14.5253V20.1083H116.158V10.2079H119.112V11.118C119.418 10.7143 119.82 10.3937 120.281 10.1864C120.742 9.97911 121.247 9.89105 121.75 9.93054C122.255 9.90569 122.759 10.0133 123.211 10.2421C123.663 10.471 124.047 10.8141 124.328 11.2372C124.655 10.7945 125.089 10.4421 125.588 10.2137C126.087 9.98535 126.637 9.88774 127.184 9.93054ZM89.6477 13.0253C89.2191 12.856 88.7495 12.8173 88.2991 12.9149C87.8486 13.0124 87.4367 13.2413 87.1145 13.5731C86.7924 13.905 86.576 14.3249 86.4905 14.7802C86.405 15.2356 86.4541 15.7066 86.6331 16.1337C86.8121 16.5607 87.1125 16.9252 87.4963 17.1815C87.8802 17.4377 88.3318 17.5742 88.7922 17.5741C89.1084 17.5883 89.4247 17.535 89.719 17.4178C90.0132 17.3008 90.2795 17.1222 90.5012 16.8944C90.722 16.6663 90.8938 16.3936 91.0022 16.0946C91.1115 15.7957 91.1559 15.4767 91.134 15.1591C91.1221 14.6958 90.9747 14.2458 90.7112 13.8661C90.4468 13.4868 90.077 13.1944 89.6477 13.0253ZM48.4319 13.0995C48.017 12.9367 47.5634 12.901 47.1282 12.996C46.6929 13.091 46.2952 13.3126 45.9846 13.6337C45.6741 13.9546 45.4644 14.3605 45.3821 14.8007C45.2997 15.2407 45.3484 15.6957 45.5217 16.1083C45.6949 16.5208 45.9855 16.8725 46.3567 17.12C46.7279 17.3675 47.1632 17.4999 47.6086 17.4999C47.9135 17.5081 48.2167 17.4523 48.4993 17.3368C48.7819 17.2212 49.0375 17.0479 49.2502 16.828C49.4629 16.6081 49.6285 16.3466 49.7356 16.0594C49.8427 15.7722 49.8899 15.4654 49.8733 15.1591C49.861 14.7115 49.7174 14.2773 49.4612 13.911C49.2049 13.5449 48.8468 13.2622 48.4319 13.0995ZM72.3108 13.0995C71.8959 12.9367 71.4423 12.901 71.0071 12.996C70.5719 13.091 70.1741 13.3126 69.8635 13.6337C69.5531 13.9546 69.3433 14.3605 69.261 14.8007C69.1786 15.2408 69.2273 15.6957 69.4006 16.1083C69.574 16.5208 69.8644 16.8725 70.2356 17.12C70.6067 17.3675 71.0423 17.4999 71.4875 17.4999C71.7924 17.508 72.0956 17.4523 72.3782 17.3368C72.6608 17.2212 72.9164 17.0479 73.1292 16.828C73.3418 16.6081 73.5074 16.3466 73.6145 16.0594C73.7215 15.7722 73.7678 15.4654 73.7512 15.1591C73.7389 14.7115 73.5963 14.2773 73.3401 13.911C73.0838 13.5449 72.7256 13.2622 72.3108 13.0995ZM60.3196 12.6718C59.8854 12.4749 59.4021 12.4136 58.9329 12.495C58.4636 12.5764 58.0292 12.7971 57.6858 13.1288C57.3422 13.4606 57.1051 13.8889 57.0051 14.3573C56.9054 14.8257 56.9472 15.3135 57.1252 15.7577C57.3035 16.2018 57.6092 16.5827 58.0042 16.8505C58.3991 17.1183 58.8656 17.2602 59.342 17.2596C59.6523 17.2814 59.9638 17.2383 60.2561 17.1317C60.5483 17.0252 60.8151 16.8579 61.0393 16.6415C61.2636 16.4248 61.4411 16.1625 61.5588 15.8729C61.6764 15.5836 61.7319 15.2724 61.7229 14.9598C61.7427 14.4815 61.6202 14.008 61.3704 13.6005C61.1203 13.1927 60.7538 12.8687 60.3196 12.6718ZM11.4553 1.01746C12.136 0.69573 12.8989 0.592472 13.6399 0.722534C14.3808 0.85272 15.0641 1.21019 15.5959 1.745C16.1279 2.27984 16.483 2.96669 16.6125 3.71179C16.7421 4.45699 16.6396 5.22446 16.3196 5.90906C15.9996 6.5937 15.4777 7.16279 14.8245 7.53796C14.1714 7.91315 13.4191 8.07626 12.6702 8.00574L12.6887 8.02429C12.0622 7.97079 11.4315 8.05534 10.8411 8.27234C10.2506 8.48923 9.71442 8.83323 9.26978 9.28015C8.82507 9.72715 8.48283 10.2664 8.26685 10.8602C8.05092 11.4539 7.96595 12.0878 8.0188 12.7177L8.00024 12.7001C8.05212 13.235 7.98547 13.7749 7.80591 14.2811C7.62635 14.7873 7.33806 15.2476 6.96118 15.6288H6.96313C6.52964 16.0665 5.99313 16.3876 5.40356 16.5614C4.81398 16.7351 4.19002 16.7559 3.59009 16.6229C2.99031 16.4898 2.43308 16.2068 1.97095 15.7997C1.50898 15.3926 1.15667 14.8743 0.946533 14.2938C0.736414 13.7132 0.674926 13.0881 0.768799 12.4774C0.862653 11.867 1.10827 11.2902 1.48267 10.8007C1.85718 10.311 2.3487 9.92357 2.91138 9.67566C3.47415 9.42779 4.0905 9.32656 4.70239 9.38171L4.68481 9.36414C5.31107 9.4173 5.94132 9.33213 6.53149 9.11511C7.12176 8.89812 7.65839 8.55418 8.10278 8.1073C8.54728 7.66031 8.88885 7.12081 9.10474 6.52722C9.32062 5.93352 9.40569 5.2997 9.35278 4.6698L9.37036 4.68835C9.30026 3.93519 9.46312 3.17824 9.83618 2.52136C10.2092 1.86453 10.7746 1.33936 11.4553 1.01746ZM133.422 5.74011C134.632 5.74011 135.615 6.72701 135.615 7.94421C135.614 9.16129 134.632 10.1483 133.422 10.1483C132.212 10.1482 131.231 9.16121 131.231 7.94421C131.231 6.7271 132.212 5.74025 133.422 5.74011ZM79.176 5.91003C79.5002 5.77523 79.8564 5.73977 80.2004 5.80847C80.5435 5.87728 80.8601 6.04659 81.1077 6.29578C81.3551 6.54488 81.5244 6.86246 81.593 7.20789C81.6606 7.55359 81.6257 7.91256 81.4915 8.23816C81.3572 8.56369 81.1304 8.84219 80.8391 9.03796C80.5478 9.2337 80.2046 9.3377 79.8547 9.33777C79.3866 9.33307 78.9378 9.14436 78.6067 8.8114C78.2755 8.4782 78.0869 8.02674 78.0823 7.55554C78.0824 7.20324 78.1865 6.85914 78.3811 6.56628C78.5758 6.27327 78.852 6.04495 79.176 5.91003Z" fill="#080829"/>
</svg>
