<svg width="76" height="76" viewBox="0 0 76 76" fill="none" xmlns="http://www.w3.org/2000/svg">
<g clip-path="url(#clip0_2_367)">
<path d="M38 67C54.0163 67 67 54.0163 67 38C67 21.9837 54.0163 9 38 9C21.9837 9 9 21.9837 9 38C9 54.0163 21.9837 67 38 67Z" fill="url(#paint0_linear_2_367)"/>
<path d="M47.4533 36.7623L34.4061 28.7886C34.1864 28.6542 33.9347 28.5809 33.6772 28.5759C33.4196 28.5711 33.1655 28.6349 32.9407 28.7609C32.7161 28.8868 32.529 29.0704 32.3988 29.2927C32.2686 29.515 32.2 29.7679 32.2 30.0256V45.9741C32.2001 46.2316 32.269 46.4844 32.3992 46.7065C32.5294 46.9287 32.7164 47.1122 32.9411 47.2381C33.1657 47.3641 33.4198 47.4279 33.6773 47.4231C33.9347 47.4184 34.1863 47.3451 34.4061 47.211L47.4533 39.2374C47.6653 39.1078 47.8403 38.9259 47.9618 38.7092C48.0833 38.4925 48.1471 38.2482 48.1471 37.9998C48.1471 37.7513 48.0833 37.5071 47.9618 37.2903C47.8403 37.0737 47.6653 36.8918 47.4533 36.7623Z" fill="white"/>
</g>
<defs>
<linearGradient id="paint0_linear_2_367" x1="9" y1="9" x2="67" y2="78.9625" gradientUnits="userSpaceOnUse">
<stop stop-color="#3F53D8"/>
<stop offset="1" stop-color="#8090FE"/>
</linearGradient>
<clipPath id="clip0_2_367">
<rect width="58" height="58" fill="white" transform="translate(9 9)"/>
</clipPath>
</defs>
</svg>
