<svg width="80" height="80" viewBox="0 0 80 80" fill="none" xmlns="http://www.w3.org/2000/svg">
<path d="M0 20C0 8.95431 8.95431 0 20 0H60C71.0457 0 80 8.95431 80 20V60C80 71.0457 71.0457 80 60 80H20C8.95431 80 0 71.0457 0 60V20Z" fill="#FA5B68" fill-opacity="0.3"/>
<path fill-rule="evenodd" clip-rule="evenodd" d="M50.5764 33.3666H58.3334C58.3334 27.1384 54.6015 23.5 48.2786 23.5H31.7215C25.3986 23.5 21.6667 27.1384 21.6667 33.2872V46.7128C21.6667 52.8616 25.3986 56.5 31.7215 56.5H48.2786C54.6015 56.5 58.3334 52.8616 58.3334 46.7128V46.1408H50.5764C46.9763 46.1408 44.0578 43.2955 44.0578 39.7855C44.0578 36.2756 46.9763 33.4302 50.5764 33.4302V33.3666ZM50.5764 36.0994H56.9645C57.7205 36.0994 58.3334 36.697 58.3334 37.434V42.0734C58.3246 42.8069 57.7168 43.3995 56.9645 43.408H50.723C48.9005 43.4319 47.3068 42.2153 46.8934 40.4846C46.6864 39.4102 46.977 38.3015 47.6874 37.4557C48.3977 36.6099 49.4552 36.1135 50.5764 36.0994ZM50.8534 40.9771H51.4564C52.2304 40.9771 52.8578 40.3654 52.8578 39.6107C52.8578 38.8561 52.2304 38.2443 51.4564 38.2443H50.8534C50.4832 38.2401 50.1267 38.3805 49.8634 38.6342C49.6001 38.888 49.4519 39.2339 49.4519 39.5948C49.4519 40.3521 50.0767 40.9684 50.8534 40.9771ZM30.3527 33.3666H40.7008C41.4748 33.3666 42.1023 32.7549 42.1023 32.0002C42.1023 31.2456 41.4748 30.6338 40.7008 30.6338H30.3527C29.585 30.6338 28.9601 31.2359 28.9512 31.9844C28.9511 32.7416 29.576 33.3579 30.3527 33.3666Z" fill="#080829"/>
</svg>
