<svg width="80" height="80" viewBox="0 0 80 80" fill="none" xmlns="http://www.w3.org/2000/svg">
<path d="M0 20C0 8.95431 8.95431 0 20 0H60C71.0457 0 80 8.95431 80 20V60C80 71.0457 71.0457 80 60 80H20C8.95431 80 0 71.0457 0 60V20Z" fill="#FE7F51" fill-opacity="0.3"/>
<path fill-rule="evenodd" clip-rule="evenodd" d="M49.4964 26.0851C49.4964 23.6467 51.4764 21.6667 53.9148 21.6667C56.3531 21.6667 58.3331 23.6467 58.3331 26.0851C58.3331 28.5235 56.3531 30.5035 53.9148 30.5035C51.4764 30.5035 49.4964 28.5235 49.4964 26.0851ZM42.4379 45.0588L47.7362 38.2223L47.6629 38.259C47.9562 37.8557 48.0112 37.3423 47.8096 36.884C47.6097 36.4257 47.1679 36.114 46.6931 36.0773C46.1962 36.0223 45.7031 36.2423 45.4079 36.6457L40.9731 42.384L35.8929 38.3873C35.5812 38.149 35.2146 38.0555 34.8479 38.094C34.4831 38.149 34.1531 38.3488 33.9312 38.6422L28.5064 45.7023L28.3946 45.8673C28.0829 46.4522 28.2296 47.2038 28.7796 47.609C29.0362 47.774 29.3112 47.884 29.6229 47.884C30.0464 47.9023 30.4479 47.6805 30.7046 47.334L35.3062 41.4105L40.5312 45.3357L40.6962 45.4438C41.2829 45.7555 42.0162 45.6107 42.4379 45.0588ZM46.3246 24.9306C46.2512 25.389 46.2146 25.8473 46.2146 26.3056C46.2146 30.4307 49.5512 33.7655 53.6579 33.7655C54.1162 33.7655 54.5562 33.7123 55.0146 33.639V48.4322C55.0146 54.649 51.3479 58.334 45.1146 58.334H31.5681C25.3329 58.334 21.6663 54.649 21.6663 48.4322V34.8673C21.6663 28.634 25.3329 24.9306 31.5681 24.9306H46.3246Z" fill="#080829"/>
</svg>
